<?xml version="1.0" encoding="UTF-8" standalone="no"?>
<!DOCTYPE svg PUBLIC "-//W3C//DTD SVG 1.1//EN" "http://www.w3.org/Graphics/SVG/1.1/DTD/svg11.dtd">
<svg width="100%" height="100%" viewBox="0 0 256 256" version="1.1" xmlns="http://www.w3.org/2000/svg" xmlns:xlink="http://www.w3.org/1999/xlink" xml:space="preserve" xmlns:serif="http://www.serif.com/" style="fill-rule:evenodd;clip-rule:evenodd;stroke-linejoin:round;stroke-miterlimit:2;">
    <path d="M154.182,5.257c0.256,-0.03 0.722,-0.086 1.162,-0.141c0.601,-0.077 1.206,-0.116 1.811,-0.116l3.269,-0c10.186,-0 21.056,2.12 32.573,6.541c0.196,0.075 0.389,0.155 0.581,0.238c3.056,1.33 5.904,2.329 8.564,2.915c0.982,-1.817 2.304,-3.456 3.948,-4.927c0.067,-0.059 0.134,-0.118 0.202,-0.177c3.654,-3.149 7.765,-4.59 12.232,-4.59c5.433,-0 9.48,1.981 12.516,4.924c2.655,2.574 5.138,6.616 5.691,12.836c0.038,0.421 0.057,0.845 0.057,1.268l-0,21.242c-0,12.53 -0.062,19.846 -0.155,21.881c-0.243,6.684 -2.829,10.972 -5.593,13.65c-3.036,2.943 -7.083,4.924 -12.516,4.924c-4.977,0 -9.053,-1.719 -12.37,-4.788c-0.082,-0.075 -0.162,-0.151 -0.242,-0.229c-2.904,-2.815 -4.226,-5.496 -4.867,-7.424c-0.164,-0.467 -0.499,-1.379 -1.001,-2.736c-0.08,-0.218 -0.156,-0.438 -0.226,-0.659c-1.425,-4.517 -4.765,-8.955 -9.536,-13.647c-5.402,-5.284 -11.277,-9.342 -17.703,-12.125c-4.119,-1.671 -7.845,-2.644 -11.242,-2.644c-1.867,-0 -3.659,0.333 -5.38,1.009c-0.062,0.024 -0.124,0.049 -0.186,0.072c-4.399,1.66 -7.928,5.218 -11.033,10.178c-4.112,6.565 -6.853,14.8 -8.486,24.61c-0.016,0.09 -0.032,0.18 -0.048,0.269c-1.121,6.017 -1.633,13.639 -1.633,22.858c0,35.34 7.588,55.223 30.226,55.223c2.926,-0 4.854,-0 5.78,-0.118l0.026,-0.004c7.772,-0.976 15.225,-3.258 22.362,-6.83c6.664,-3.365 12.025,-7.305 15.94,-12.013c0.328,-0.394 0.676,-0.77 1.043,-1.126c5.325,-5.162 10.524,-6.507 14.343,-6.507c5.554,-0 10.627,2.117 14.76,7.25c0.011,0.012 0.021,0.025 0.031,0.038c4.453,5.569 5.249,11.484 3.094,17.61c-0.131,0.374 -0.279,0.742 -0.441,1.104c-1.453,3.244 -6.433,9.467 -16.166,17.492c-0.049,0.041 -0.1,0.083 -0.15,0.123c-18.752,15.039 -40.268,22.574 -64.563,22.574c-13.873,-0 -26.589,-2.366 -38.164,-6.984c-15.004,-5.708 -27.319,-14.494 -37.003,-26.279c-9.731,-11.804 -16.023,-25.674 -18.771,-41.658c-1.019,-5.926 -1.553,-12.696 -1.553,-20.314c0,-26.965 8.122,-48.909 23.797,-66.035c0.044,-0.048 0.089,-0.095 0.132,-0.143c15.177,-16.134 35.047,-25.642 59.78,-28.127c2.249,-0.288 3.954,-0.435 5.108,-0.488Zm73.585,57.684c0.19,0.525 0.327,0.908 0.41,1.148c0.069,0.201 0.134,0.404 0.194,0.608c-0.139,-0.469 -0.301,-1.069 -0.604,-1.756Z" style="fill:#1c3e4c;"/>
    <path d="M120.248,100.469c-0,46.364 14.849,69.546 44.549,69.546c3.844,0 6.375,-0.078 7.592,-0.233c9.388,-1.18 18.39,-3.928 27.009,-8.245c8.617,-4.348 15.458,-9.564 20.52,-15.651c1.698,-1.647 3.156,-2.469 4.373,-2.469c1.377,0 2.579,0.637 3.604,1.91c0.993,1.242 1.249,2.547 0.769,3.912c-1.057,2.361 -5.126,6.46 -12.206,12.298c-16.148,12.95 -34.681,19.425 -55.602,19.425c-11.982,-0 -22.971,-2.003 -32.967,-6.009c-12.623,-4.783 -23.003,-12.127 -31.141,-22.034c-8.169,-9.906 -13.408,-21.566 -15.714,-34.982c-0.897,-5.218 -1.345,-11.18 -1.345,-17.887c-0,-22.981 6.679,-41.769 20.039,-56.364c12.912,-13.727 29.907,-21.63 50.988,-23.71c2.147,-0.28 3.604,-0.42 4.374,-0.42c0.16,0 0.848,-0.077 2.065,-0.233l3.269,0c8.585,0 17.732,1.864 27.44,5.591c7.208,3.136 13.664,4.704 19.366,4.704c1.987,-0 3.685,-0.605 5.094,-1.817c1.379,-1.18 2.067,-2.67 2.067,-4.471c-0,-1.181 0.416,-2.143 1.249,-2.888c0.865,-0.746 1.827,-1.119 2.884,-1.119c1.089,0 1.939,0.296 2.547,0.886c0.769,0.745 1.233,2.018 1.393,3.819l0,21.242c0,12.359 -0.047,19.471 -0.144,21.334c-0.064,1.863 -0.48,3.167 -1.249,3.913c-0.608,0.59 -1.458,0.885 -2.547,0.885c-1.057,-0 -1.938,-0.326 -2.643,-0.979c-0.705,-0.683 -1.121,-1.242 -1.249,-1.676c-0.16,-0.466 -0.545,-1.522 -1.154,-3.168c-2.019,-6.397 -6.408,-12.918 -13.168,-19.565c-6.76,-6.614 -14.144,-11.645 -22.154,-15.092c-6.151,-2.515 -11.758,-3.773 -16.819,-3.773c-3.685,0 -7.225,0.668 -10.621,2.004c-7.08,2.67 -13.119,7.996 -18.117,15.977c-4.998,7.981 -8.49,17.934 -10.477,29.859c-1.249,6.707 -1.874,15.201 -1.874,25.48Zm11.533,-67.497c0.769,-0.745 1.09,-1.118 0.961,-1.118c-1.089,0 -4.02,1.258 -8.794,3.773c-24.284,11.925 -36.426,33.461 -36.426,64.609c-0,34.595 15.217,57.404 45.653,68.428c0.609,0.155 1.074,0.31 1.394,0.466c0.449,0.155 0.833,0.295 1.153,0.419l0.481,0c-0.641,-0.59 -1.345,-1.18 -2.114,-1.769c-14.738,-12.671 -22.107,-35.186 -22.107,-67.544c0,-19.968 2.996,-36.582 8.987,-49.843c3.236,-7.608 6.84,-13.415 10.812,-17.421Zm82.61,16.769l-0,-13.881c-2.146,1.056 -4.998,1.583 -8.554,1.583l-2.98,-0.232l3.461,3.587c1.057,1.024 3.748,4.006 8.073,8.943Z" style="fill:#fff;fill-rule:nonzero;"/>
    <g>
        <path d="M43.195,54.355l-0.9,201.645l-26.541,-0.026l0.9,-201.645l26.541,0.026Z" style="fill:#0088fb;"/>
        <path d="M29.616,0l31.099,70.519l-60.715,0.636l29.616,-71.155Z" style="fill:#0088fb;"/>
        <path d="M201.645,238.48l-201.645,-0.9l0.026,-26.541l201.645,0.9l-0.026,26.541Z" style="fill:#e60000;"/>
        <path d="M256,224.901l-70.519,31.099l-0.636,-60.715l71.155,29.616Z" style="fill:#e60000;"/>
    </g>
</svg>
