<?xml version="1.0" encoding="UTF-8" standalone="no"?>
<!DOCTYPE svg PUBLIC "-//W3C//DTD SVG 1.1//EN" "http://www.w3.org/Graphics/SVG/1.1/DTD/svg11.dtd">
<svg width="100%" height="100%" viewBox="0 0 256 256" version="1.1" xmlns="http://www.w3.org/2000/svg" xmlns:xlink="http://www.w3.org/1999/xlink" xml:space="preserve" xmlns:serif="http://www.serif.com/" style="fill-rule:evenodd;clip-rule:evenodd;stroke-linejoin:round;stroke-miterlimit:2;">
    <path d="M139.294,20.221c0.264,-0.031 0.744,-0.089 1.197,-0.146c0.619,-0.079 1.242,-0.119 1.866,-0.119l3.367,0c10.494,0 21.692,2.184 33.557,6.739c0.202,0.077 0.401,0.159 0.599,0.245c3.148,1.37 6.082,2.399 8.822,3.003c1.012,-1.872 2.374,-3.561 4.067,-5.076c0.069,-0.061 0.138,-0.122 0.208,-0.182c3.765,-3.244 8,-4.729 12.602,-4.729c5.597,0 9.766,2.041 12.894,5.073c2.735,2.651 5.293,6.815 5.863,13.223c0.039,0.434 0.058,0.871 0.058,1.307l0,21.883c0,12.908 -0.063,20.445 -0.159,22.542c-0.251,6.886 -2.915,11.303 -5.762,14.062c-3.128,3.032 -7.297,5.073 -12.894,5.073c-5.127,-0 -9.327,-1.771 -12.744,-4.933c-0.084,-0.077 -0.167,-0.156 -0.249,-0.236c-2.992,-2.9 -4.354,-5.662 -5.014,-7.648c-0.169,-0.481 -0.514,-1.421 -1.031,-2.819c-0.083,-0.224 -0.161,-0.451 -0.233,-0.679c-1.468,-4.653 -4.909,-9.225 -9.824,-14.059c-5.565,-5.443 -11.618,-9.624 -18.238,-12.491c-4.243,-1.721 -8.081,-2.724 -11.581,-2.724c-1.923,-0 -3.77,0.343 -5.542,1.04c-0.064,0.025 -0.128,0.05 -0.192,0.074c-4.532,1.71 -8.167,5.376 -11.366,10.485c-4.236,6.764 -7.06,15.247 -8.743,25.353c-0.016,0.093 -0.032,0.186 -0.049,0.278c-1.155,6.198 -1.682,14.05 -1.682,23.548c0,36.407 7.817,56.89 31.138,56.89c3.015,0 5.001,0 5.955,-0.121l0.027,-0.004c8.007,-1.006 15.685,-3.357 23.037,-7.037c6.865,-3.466 12.388,-7.525 16.421,-12.375c0.338,-0.406 0.697,-0.793 1.075,-1.16c5.486,-5.318 10.842,-6.704 14.776,-6.704c5.722,-0 10.948,2.181 15.206,7.469c0.011,0.013 0.021,0.026 0.032,0.039c4.587,5.738 5.407,11.831 3.187,18.142c-0.135,0.385 -0.287,0.764 -0.454,1.137c-1.497,3.342 -6.627,9.753 -16.654,18.021c-0.051,0.042 -0.103,0.085 -0.155,0.126c-19.318,15.493 -41.484,23.256 -66.513,23.256c-14.291,0 -27.391,-2.437 -39.316,-7.195c-15.457,-5.88 -28.144,-14.932 -38.12,-27.072c-10.025,-12.161 -16.507,-26.45 -19.338,-42.916c-1.05,-6.105 -1.6,-13.08 -1.6,-20.928c-0,-27.779 8.367,-50.386 24.516,-68.029c0.045,-0.049 0.091,-0.098 0.136,-0.147c15.635,-16.621 36.105,-26.416 61.585,-28.976c2.317,-0.297 4.073,-0.449 5.262,-0.503Zm75.807,59.426c0.196,0.541 0.337,0.935 0.422,1.182c0.071,0.207 0.138,0.416 0.2,0.627c-0.143,-0.484 -0.31,-1.102 -0.622,-1.809Z" style="fill:#1c3e4c;"/>
    <path d="M104.335,118.308c0,47.764 15.298,71.646 45.894,71.646c3.961,-0 6.568,-0.08 7.822,-0.24c9.671,-1.216 18.945,-4.047 27.824,-8.494c8.878,-4.479 15.925,-9.853 21.14,-16.124c1.749,-1.696 3.251,-2.543 4.505,-2.543c1.419,-0 2.657,0.656 3.713,1.967c1.023,1.28 1.287,2.624 0.792,4.031c-1.089,2.432 -5.281,6.655 -12.575,12.669c-16.635,13.341 -35.728,20.011 -57.281,20.011c-12.343,0 -23.664,-2.063 -33.962,-6.19c-13.004,-4.927 -23.698,-12.493 -32.081,-22.699c-8.416,-10.205 -13.813,-22.218 -16.189,-36.039c-0.924,-5.375 -1.386,-11.517 -1.386,-18.427c-0,-23.675 6.881,-43.03 20.645,-58.066c13.301,-14.141 30.81,-22.283 52.527,-24.426c2.212,-0.288 3.713,-0.432 4.506,-0.432c0.165,0 0.874,-0.08 2.128,-0.24l3.367,0c8.845,0 18.268,1.92 28.269,5.759c7.426,3.231 14.077,4.846 19.951,4.846c2.047,0 3.796,-0.623 5.248,-1.871c1.42,-1.216 2.129,-2.751 2.129,-4.607c0,-1.216 0.429,-2.207 1.287,-2.975c0.891,-0.768 1.882,-1.152 2.971,-1.152c1.122,0 1.997,0.304 2.624,0.912c0.792,0.768 1.27,2.079 1.435,3.935l0,21.883c0,12.732 -0.049,20.059 -0.148,21.978c-0.066,1.92 -0.495,3.263 -1.287,4.031c-0.627,0.608 -1.502,0.912 -2.624,0.912c-1.089,-0 -1.997,-0.336 -2.723,-1.008c-0.726,-0.704 -1.155,-1.28 -1.287,-1.727c-0.165,-0.48 -0.561,-1.568 -1.189,-3.264c-2.079,-6.59 -6.601,-13.308 -13.565,-20.155c-6.964,-6.814 -14.571,-11.997 -22.823,-15.548c-6.337,-2.591 -12.113,-3.887 -17.327,-3.887c-3.796,0 -7.443,0.688 -10.942,2.064c-7.294,2.751 -13.515,8.238 -18.664,16.46c-5.149,8.222 -8.746,18.475 -10.793,30.76c-1.287,6.91 -1.931,15.66 -1.931,26.25Zm11.882,-69.535c0.792,-0.768 1.122,-1.152 0.99,-1.152c-1.122,-0 -4.142,1.296 -9.06,3.887c-25.017,12.285 -37.526,34.471 -37.526,66.56c-0,35.639 15.677,59.137 47.032,70.494c0.627,0.16 1.106,0.32 1.436,0.48c0.462,0.16 0.858,0.304 1.188,0.432l0.495,0c-0.66,-0.608 -1.386,-1.216 -2.178,-1.823c-15.183,-13.053 -22.774,-36.248 -22.774,-69.583c0,-20.571 3.086,-37.687 9.258,-51.348c3.334,-7.838 7.047,-13.82 11.139,-17.947Zm85.104,17.275l0,-14.3c-2.211,1.088 -5.149,1.631 -8.812,1.631l-3.07,-0.239l3.565,3.695c1.089,1.055 3.861,4.127 8.317,9.213Z" style="fill:#fff;fill-rule:nonzero;"/>
    <g>
        <path d="M34.195,21.356l-0.441,210.857l-13,-0.027l0.441,-210.857l13,0.027Z" style="fill:#0088fb;"/>
        <path d="M27.108,3.73l15.365,34.841l-29.997,0.314l14.632,-35.155Z" style="fill:#0088fb;"/>
    </g>
    <g>
        <path d="M224.34,237.464l-197.398,1.965l-0.13,-12.999l197.399,-1.966l0.129,13Z" style="fill:#ff0505;"/>
        <path d="M251.594,230.322l-34.656,15.679l-0.671,-29.783l35.327,14.104Z" style="fill:#ff0505;"/>
    </g>
    <circle cx="26.812" cy="232.213" r="10"/>
</svg>
